<svg xmlns="http://www.w3.org/2000/svg" viewBox="0 0 64 64">
  <!-- palette -->
  <!-- gear: slate gray; spring: blue -->
  <defs>
    <style>
      .gear { fill: none; stroke: #64748b; stroke-width: 3.5; stroke-linecap: round; stroke-linejoin: round; }
      .spring { fill: none; stroke: #3b82f6; stroke-width: 3.5; stroke-linecap: round; stroke-linejoin: round; }
    </style>
  </defs>

  <!-- gear group (left) -->
  <g transform="translate(16,32) scale(0.95)">
    <!-- outer ring -->
    <circle class="gear" cx="0" cy="0" r="12"/>
    <!-- inner hole -->
    <circle class="gear" cx="0" cy="0" r="5.5"/>

    <!-- 8 teeth (short rounded rectangles) -->
    <g class="gear">
      <path d="M0 -18 l0 -4" />
      <path d="M12.73 -12.73 l2.83 -2.83" />
      <path d="M18 0 l4 0" />
      <path d="M12.73 12.73 l2.83 2.83" />
      <path d="M0 18 l0 4" />
      <path d="M-12.73 12.73 l-2.83 2.83" />
      <path d="M-18 0 l-4 0" />
      <path d="M-12.73 -12.73 l-2.83 -2.83" />
    </g>
  </g>

  <!-- coil spring (right) -->
  <!-- three helical turns suggested with smooth bezier waves -->
  <g transform="translate(34,18)">
    <path class="spring"
      d="M2 4
         C 8 0, 16 0, 22 4
         S 36 8, 42 4" />
    <path class="spring"
      d="M2 16
         C 8 12, 16 12, 22 16
         S 36 20, 42 16" />
    <path class="spring"
      d="M2 28
         C 8 24, 16 24, 22 28
         S 36 32, 42 28" />
  </g>
</svg>
